<svg width="133" height="58" viewBox="0 0 133 58" fill="none" xmlns="http://www.w3.org/2000/svg">
<path fill-rule="evenodd" clip-rule="evenodd" d="M24 0C10.7452 0 0 10.7452 0 24C0 37.2548 10.7452 48 24 48H59.5718L64.768 57C65.5378 58.3333 67.4622 58.3333 68.232 57L73.4282 48H109C122.255 48 133 37.2548 133 24C133 10.7452 122.255 0 109 0H24Z" fill="#8787F2"/>
<path d="M22.5176 31H19.8027L24.7832 16.8594H27.9082L32.9082 31H30.1934L29.0215 27.5039H23.6895L22.5176 31ZM24.373 25.4531H28.3379L26.4043 19.75H26.2871L24.373 25.4531ZM36.627 16.8594V31H34.0879V16.8594H36.627ZM58.4004 24.2227V25.9609H51.584V29.0078H49.4355V25.9609H42.2676V24.2227H58.4004ZM56.623 30.6289V32.3867H44.2207V27.5234H46.3691V30.6289H56.623ZM46.5254 15.6484V17.6406H54.1426V15.6484H56.291V22.8359H44.377V15.6484H46.5254ZM46.5254 21.1172H54.1426V19.2617H46.5254V21.1172ZM65.4785 17.875C65.4785 20.1406 66.9043 22.3086 69.6191 23.1875L68.4473 24.9258C66.5332 24.252 65.166 22.9141 64.4238 21.2148C63.6328 23.0703 62.1973 24.5254 60.166 25.2578L58.9941 23.5195C61.8652 22.5625 63.291 20.2578 63.291 17.7383V16H65.4785V17.875ZM73.8574 26.4297V32.7383H71.6895V28.1484H61.8262V26.4297H73.8574ZM73.8574 15.082V25.5703H71.6895V20.2969H68.1738V18.5195H71.6895V15.082H73.8574ZM94.8887 15.082V24.0273H92.7207V22.4844H88.4629V20.8242H92.7207V19.0859H88.6973C87.584 21.7812 85.0059 23.5391 81.0996 24.418L80.3379 22.6406C84.4883 21.7812 86.5586 19.9551 86.8613 17.6016H81.3145V15.8438H89.2832C89.2832 16.4004 89.2344 16.9277 89.166 17.4258H92.7207V15.082H94.8887ZM94.8887 24.7109V29.3594H85.4551V30.8242H95.3574V32.5625H83.2871V27.7383H92.7207V26.4297H83.2676V24.7109H94.8887ZM106.752 16.918V18.168C106.752 19.75 106.752 21.957 106.264 25.0039L104.115 24.8281C104.535 22.1523 104.584 20.1797 104.604 18.6562H97.6699V16.918H106.752ZM102.299 21.957V27.1719C104.096 27.1035 105.941 26.9766 107.631 26.7617L107.748 28.3828C104.096 28.9688 100.053 29.0469 96.9473 29.0273L96.7324 27.2891C97.7773 27.2793 98.9395 27.2695 100.15 27.2305V21.957H102.299ZM110.736 15.082V22.2695H113.295V24.1055H110.736V32.7383H108.549V15.082H110.736Z" fill="white"/>
</svg>
