<svg width="244" height="54" viewBox="0 0 244 54" fill="none" xmlns="http://www.w3.org/2000/svg">
<path d="M215 0L207.206 10.5H222.794L215 0Z" fill="#52525B"/>
<rect y="8" width="244" height="46" rx="23" fill="#52525B"/>
<path d="M34.6641 24.9121V37.1895H33.3789V30.4492H30.6719V34.1543H24.9297V25.8555H26.2422V28.9863H29.4004V25.8555H30.6719V29.3828H33.3789V24.9121H34.6641ZM26.2422 33.0879H29.4004V30.0117H26.2422V33.0879ZM46.3453 24.9121V37.1895H45.0465V24.9121H46.3453ZM42.8453 26.0469V27.127H38.2926V33.0742C40.6168 33.0674 42.1002 33.0059 43.8297 32.6914L43.9664 33.7715C42.1344 34.0996 40.5348 34.1816 37.9918 34.1816H36.9801V26.0469H42.8453ZM51.6281 25.6914C53.5148 25.6914 54.923 26.8809 54.923 28.6035C54.923 30.1211 53.8293 31.2217 52.2844 31.4609V33.4023C53.3713 33.3545 54.4582 33.2725 55.4699 33.1426L55.5656 34.1133C52.9816 34.5645 50.1242 34.5781 48.0051 34.5645L47.8 33.498C48.7502 33.4912 49.8439 33.4844 50.9855 33.457V31.4609C49.3996 31.2354 48.3195 30.1279 48.3332 28.6035C48.3195 26.8809 49.7004 25.6914 51.6281 25.6914ZM51.6281 26.7852C50.4523 26.7988 49.591 27.5098 49.591 28.6035C49.591 29.6973 50.4523 30.4219 51.6281 30.4082C52.7902 30.4219 53.6379 29.6973 53.6516 28.6035C53.6379 27.5098 52.7902 26.7988 51.6281 26.7852ZM57.507 24.9121V29.8887H59.3937V30.9824H57.507V37.1621H56.2082V24.9121H57.507ZM69.3578 25.7324C69.3578 28.877 67.1156 30.9688 63.5199 31.8438L62.9867 30.791C65.9945 30.1279 67.7445 28.624 67.9633 26.7852H63.6293V25.7324H69.3578ZM72.9125 24.9258V31.584H71.6137V24.9258H72.9125ZM73.1039 32.2402V33.252H71.4633V35.918H73.2406V36.9707H64.6957V35.918H66.432V33.252H64.8051V32.2402H73.1039ZM67.7035 35.918H70.1918V33.252H67.7035V35.918ZM85.6875 31.3105V32.3496H74.5176V31.3105H85.6875ZM84.4297 35.8496V36.9023H75.9258V33.3477H77.2383V35.8496H84.4297ZM80.0957 25.3223C82.748 25.3086 84.4707 26.2383 84.4707 27.7695C84.4707 29.3145 82.748 30.2441 80.0957 30.2578C77.4297 30.2441 75.7207 29.3145 75.7207 27.7695C75.7207 26.2383 77.4297 25.3086 80.0957 25.3223ZM80.0957 26.3613C78.2227 26.3613 77.0469 26.8945 77.0605 27.7695C77.0469 28.6719 78.2227 29.1914 80.0957 29.1914C81.9688 29.1914 83.1309 28.6719 83.1309 27.7695C83.1309 26.8945 81.9688 26.3613 80.0957 26.3613ZM99.4797 24.9121V37.1895H98.1809V24.9121H99.4797ZM92.9309 25.8281C94.7492 25.8281 96.0891 27.4961 96.0891 30.1211C96.0891 32.7598 94.7492 34.4277 92.9309 34.4277C91.0852 34.4277 89.759 32.7598 89.759 30.1211C89.759 27.4961 91.0852 25.8281 92.9309 25.8281ZM92.9309 26.9902C91.7961 26.9902 91.0168 28.1934 91.0168 30.1211C91.0168 32.0625 91.7961 33.2656 92.9309 33.2656C94.052 33.2656 94.8313 32.0625 94.8313 30.1211C94.8313 28.1934 94.052 26.9902 92.9309 26.9902ZM104.366 25.8281C106.198 25.8281 107.497 27.4961 107.511 30.1211C107.497 32.7598 106.198 34.4277 104.366 34.4277C102.534 34.4277 101.221 32.7598 101.235 30.1211C101.221 27.4961 102.534 25.8281 104.366 25.8281ZM104.366 26.9902C103.245 26.9902 102.479 28.1934 102.479 30.1211C102.479 32.0625 103.245 33.2656 104.366 33.2656C105.501 33.2656 106.266 32.0625 106.266 30.1211C106.266 28.1934 105.501 26.9902 104.366 26.9902ZM112.528 27.9062V29.0137H110.628V31.5566H112.528V32.623H110.628V37.1621H109.329V24.9121H110.628V27.9062H112.528ZM123.02 24.9121V37.1621H121.707V24.9121H123.02ZM119.37 26.2246C119.37 29.8066 117.838 32.9238 113.641 34.9336L112.957 33.8809C116.218 32.3291 117.804 30.1211 118.057 27.2637H113.545V26.2246H119.37ZM135.781 30.5312V31.5293H124.57V30.5312H135.781ZM134.4 32.3906V35.084H127.209V36.0957H134.783V37.0117H125.91V34.2227H133.115V33.3203H125.896V32.3906H134.4ZM134.373 25.2266V27.8789H127.291V28.8086H134.578V29.7246H126.006V27.0176H133.074V26.1426H125.979V25.2266H134.373ZM150.845 29.7246V30.791H148.945V37.1484H147.646V24.9121H148.945V29.7246H150.845ZM141.152 26.1016V32.9922C142.861 32.9922 144.645 32.8486 146.593 32.4453L146.743 33.5391C144.652 33.9629 142.71 34.0723 140.878 34.0723H139.866V26.1016H141.152ZM161.036 27.7012V28.7539H152.628V25.0898H153.899V27.7012H161.036ZM162.348 29.6973V30.7637H157.345V31.9395H160.94V34.8652H153.831V36.0273H161.364V37.0391H152.532V33.9492H159.655V32.9375H152.505V31.9395H156.087V30.7637H151.137V29.6973H162.348ZM172.244 25.9922C172.23 27.6191 174.227 29.1504 176.633 29.4648L176.127 30.5312C174.124 30.21 172.36 29.1709 171.574 27.7285C170.768 29.1777 169.011 30.21 167.021 30.5312L166.502 29.4648C168.908 29.1504 170.877 27.6328 170.891 25.9922V25.3223H172.244V25.9922ZM177.139 31.7344V32.8008H172.162V37.1621H170.891V32.8008H165.969V31.7344H177.139ZM185.038 33.0059C185.038 34.0586 185.558 35.1729 186.665 35.8359C187.793 35.1182 188.347 33.9424 188.347 33.0059V32.418H189.618V33.0059C189.618 34.2773 190.452 35.5078 192.052 36.0273L191.409 36.9844C190.199 36.5674 189.379 35.7539 188.948 34.7422C188.559 35.7334 187.827 36.6289 186.706 37.0938C185.53 36.6494 184.785 35.7812 184.409 34.7832C183.965 35.7471 183.158 36.5605 182.003 36.9844L181.347 36.0273C182.919 35.4668 183.767 34.1953 183.78 33.0059V32.418H185.038V33.0059ZM190.945 24.9258V31.8984H189.646V24.9258H190.945ZM184.3 25.5957C186.173 25.5957 187.554 26.7852 187.554 28.4941C187.554 30.1895 186.173 31.3652 184.3 31.3652C182.427 31.3652 181.032 30.1895 181.032 28.4941C181.032 26.7852 182.427 25.5957 184.3 25.5957ZM184.3 26.7031C183.138 26.6895 182.304 27.4141 182.304 28.4941C182.304 29.5605 183.138 30.2852 184.3 30.2852C185.448 30.2852 186.282 29.5605 186.282 28.4941C186.282 27.4141 185.448 26.6895 184.3 26.7031ZM195.858 25.8281C197.519 25.8281 198.736 27.2363 198.934 29.5059H201.464V24.9121H202.749V37.1895H201.464V30.5586H198.948C198.804 32.9443 197.56 34.4277 195.858 34.4277C194.026 34.4277 192.741 32.7598 192.755 30.1211C192.741 27.4961 194.026 25.8281 195.858 25.8281ZM195.858 26.9902C194.751 26.9902 193.985 28.1934 193.985 30.1211C193.985 32.0625 194.751 33.2656 195.858 33.2656C196.966 33.2656 197.731 32.0625 197.731 30.1211C197.731 28.1934 196.966 26.9902 195.858 26.9902ZM215.496 34.5508V35.6309H204.286V34.5508H206.965V31.3516C205.96 30.7979 205.352 29.916 205.352 28.8223C205.352 26.8945 207.239 25.623 209.864 25.623C212.502 25.623 214.389 26.8945 214.389 28.8223C214.389 29.9023 213.801 30.7705 212.817 31.3242V34.5508H215.496ZM209.864 26.6621C207.936 26.6621 206.61 27.4961 206.61 28.8223C206.61 30.1348 207.936 30.9961 209.864 30.9961C211.778 30.9961 213.131 30.1348 213.131 28.8223C213.131 27.4961 211.778 26.6621 209.864 26.6621ZM208.25 34.5508H211.504V31.8164C211.005 31.9463 210.452 32.0078 209.864 32.0078C209.289 32.0078 208.743 31.9463 208.25 31.8301V34.5508ZM218.291 26.1016L218.168 33.1426H216.814L216.691 26.1016H218.291ZM217.498 36.0957C216.965 36.0957 216.514 35.6582 216.527 35.125C216.514 34.5918 216.965 34.1543 217.498 34.1543C218.018 34.1543 218.469 34.5918 218.469 35.125C218.469 35.6582 218.018 36.0957 217.498 36.0957Z" fill="white"/>
</svg>
