<svg width="393" height="248" viewBox="0 0 393 248" fill="none" xmlns="http://www.w3.org/2000/svg">
<path d="M163.354 18.796C272.954 -20.716 345.87 9.47454 396 41.5233V251H-2V47.5619C74.9669 70.7855 120.156 34.3693 163.354 18.796Z" fill="url(#paint0_linear_478_1957)" fill-opacity="0.6"/>
<path d="M246.958 29.1511C120.009 -8.29873 -9.93512 19.0797 -68 49.4558V248H393V55.1793C307.955 55.1793 296.994 43.9117 246.958 29.1511Z" fill="url(#paint1_linear_478_1957)" fill-opacity="0.4"/>
<path d="M229.723 60.2015C121.5 28.2456 49.5 52.6627 0 78.5826V248H393V83.4664C317 102.249 272.378 72.7967 229.723 60.2015Z" fill="url(#paint2_linear_478_1957)"/>
<defs>
<linearGradient id="paint0_linear_478_1957" x1="197" y1="-8.17542" x2="197" y2="52.2242" gradientUnits="userSpaceOnUse">
<stop stop-color="white"/>
<stop offset="1" stop-color="white"/>
</linearGradient>
<linearGradient id="paint1_linear_478_1957" x1="162.5" y1="2.351" x2="162.5" y2="59.5983" gradientUnits="userSpaceOnUse">
<stop stop-color="white"/>
<stop offset="1" stop-color="white"/>
</linearGradient>
<linearGradient id="paint2_linear_478_1957" x1="196.5" y1="38.388" x2="196.5" y2="248" gradientUnits="userSpaceOnUse">
<stop stop-color="white"/>
<stop offset="0.715" stop-color="white"/>
</linearGradient>
</defs>
</svg>
