<svg width="222" height="73" viewBox="0 0 222 73" fill="none" xmlns="http://www.w3.org/2000/svg">
<path d="M0 0H17.1665C22.5529 0 27.2805 1.51275 31.2718 4.53826C33.1706 5.97343 34.6818 7.7577 35.8444 9.81349C37.0069 11.8693 37.5881 14.119 37.5881 16.5627C37.5881 18.8512 37.0844 20.9846 35.9994 22.9628C34.9531 24.941 33.5581 26.6477 31.8143 28.1217C32.8606 28.6647 33.8293 29.2465 34.7593 29.9447C36.6581 31.3799 38.2082 33.0866 39.3707 35.1036C40.5332 37.1594 41.1145 39.3703 41.1145 41.7752C41.1145 44.1801 40.5332 46.3911 39.3707 48.4081C38.2082 50.4639 36.6581 52.1706 34.7593 53.6057C30.768 56.5537 26.0792 57.9888 20.6929 57.9888H0V0ZM7.36263 7.36982V25.5228H19.7628C22.6304 25.0574 24.9554 24.1265 26.7767 22.7301C29.1017 20.8682 30.2643 18.8124 30.2643 16.5627C30.2643 14.2742 29.1017 12.2184 26.7767 10.3565C25.6142 9.4644 24.2192 8.72741 22.5529 8.18438C20.9254 7.64134 19.1041 7.36982 17.1665 7.36982H7.36263ZM7.36263 32.8927V50.6578H20.6929C22.6304 50.6578 24.4517 50.3863 26.118 49.8433C27.7842 49.3002 29.1793 48.602 30.3418 47.7099C32.6281 45.9256 33.7906 43.9474 33.7906 41.7752C33.7906 39.6031 32.6281 37.6249 30.3418 35.8406C29.1793 34.9485 27.7842 34.2503 26.118 33.7072C24.4517 33.1642 22.6304 32.8927 20.6929 32.8927H7.36263Z" fill="#7676FF"/>
<path d="M86.284 57.9888H78.9213V52.5584C77.0226 54.2651 74.8138 55.584 72.4112 56.5537C69.9699 57.5234 67.3736 57.9888 64.6611 57.9888C60.7085 57.9888 57.066 57.0191 53.8109 55.0797C50.5171 53.1015 47.9208 50.5027 45.9833 47.2444C44.0845 44.025 43.077 40.3789 43.0382 36.3448V14.7008H50.4008V36.4224C50.4396 39.0988 51.0984 41.5037 52.3384 43.6371C53.6172 45.7705 55.3222 47.4771 57.4922 48.7184C59.6235 49.9984 62.026 50.6578 64.6611 50.6578C67.2961 50.6578 69.6987 49.9984 71.8687 48.7184C74 47.4384 75.705 45.7317 76.9838 43.5983C78.2626 41.4261 78.8826 39.0213 78.9213 36.3448V14.7008H86.284V57.9888Z" fill="#7676FF"/>
<path d="M109.822 57.9888C105.87 57.9888 102.227 57.0191 98.9721 55.0797C95.6783 53.1015 93.082 50.5027 91.1444 47.2056C89.1682 43.9474 88.1994 40.3401 88.1994 36.3448C88.1994 32.3884 89.1682 28.7811 91.1444 25.4841C93.082 22.2258 95.6783 19.5882 98.9721 17.6488C102.227 15.7093 105.87 14.7008 109.822 14.7008C112.535 14.7008 115.131 15.2051 117.572 16.136C119.975 17.1057 122.184 18.4245 124.083 20.1312V0H131.445V36.3836C131.368 40.4176 130.399 44.025 128.461 47.2832C126.524 50.5414 123.928 53.1403 120.672 55.0797C117.379 57.0191 113.775 57.9888 109.822 57.9888ZM109.822 50.6578C112.457 50.6578 114.86 49.9984 117.03 48.7184C119.161 47.4384 120.905 45.7317 122.184 43.5595C123.463 41.3874 124.083 38.9825 124.083 36.3448C124.083 33.7072 123.463 31.3023 122.184 29.1302C120.905 26.9968 119.161 25.2513 117.03 23.9713C114.86 22.6913 112.457 22.0707 109.822 22.0707C107.187 22.0707 104.785 22.6913 102.615 23.9713C100.445 25.2513 98.7396 26.9968 97.4608 29.1302C96.182 31.3023 95.562 33.7072 95.562 36.3448C95.562 38.9825 96.182 41.3874 97.4608 43.5595C98.7396 45.7317 100.445 47.4384 102.615 48.7184C104.785 49.9984 107.187 50.6578 109.822 50.6578Z" fill="#7676FF"/>
<path d="M154.983 57.9888C151.031 57.9888 147.388 57.0191 144.133 55.0797C140.839 53.1015 138.243 50.5027 136.306 47.2056C134.329 43.9474 133.361 40.3401 133.361 36.3448C133.361 32.3884 134.329 28.7811 136.306 25.4841C138.243 22.2258 140.839 19.5882 144.133 17.6488C147.388 15.7093 151.031 14.7008 154.983 14.7008C157.696 14.7008 160.292 15.2051 162.734 16.136C165.136 17.1057 167.345 18.4245 169.244 20.1312V0H176.606V36.3836C176.529 40.4176 175.56 44.025 173.623 47.2832C171.685 50.5414 169.089 53.1403 165.834 55.0797C162.54 57.0191 158.936 57.9888 154.983 57.9888ZM154.983 50.6578C157.618 50.6578 160.021 49.9984 162.191 48.7184C164.322 47.4384 166.066 45.7317 167.345 43.5595C168.624 41.3874 169.244 38.9825 169.244 36.3448C169.244 33.7072 168.624 31.3023 167.345 29.1302C166.066 26.9968 164.322 25.2513 162.191 23.9713C160.021 22.6913 157.618 22.0707 154.983 22.0707C152.348 22.0707 149.946 22.6913 147.776 23.9713C145.606 25.2513 143.901 26.9968 142.622 29.1302C141.343 31.3023 140.723 33.7072 140.723 36.3448C140.723 38.9825 141.343 41.3874 142.622 43.5595C143.901 45.7317 145.606 47.4384 147.776 48.7184C149.946 49.9984 152.348 50.6578 154.983 50.6578Z" fill="#7676FF"/>
<path d="M178.522 14.7008H185.923V36.5C185.962 39.1764 186.582 41.5813 187.861 43.7535C189.139 45.8868 190.844 47.5935 193.014 48.8735C195.185 50.1536 197.587 50.813 200.261 50.813C202.896 50.813 205.298 50.1536 207.468 48.8735C209.639 47.5935 211.344 45.8868 212.622 43.7535C213.901 41.6201 214.56 39.2152 214.599 36.5388V14.7008H222V51.3172C221.923 55.3512 220.915 58.9586 218.977 62.2168C217.04 65.475 214.444 68.1126 211.15 70.0521C207.856 71.9915 204.213 73 200.261 73V65.5914C202.741 65.5914 204.988 65.0484 207.042 63.9235C209.135 62.7986 210.801 61.2471 212.119 59.3464C213.436 57.4458 214.211 55.2736 214.521 52.83C212.584 54.4979 210.414 55.8167 207.972 56.7864C205.57 57.7173 202.973 58.1828 200.261 58.1828C196.27 58.1828 192.627 57.2131 189.333 55.2349C186.039 53.2954 183.443 50.6578 181.467 47.3608C179.491 44.0638 178.522 40.4176 178.522 36.4612V14.7008Z" fill="#7676FF"/>
</svg>
