<svg width="12" height="13" viewBox="0 0 12 13" fill="none" xmlns="http://www.w3.org/2000/svg">
<path d="M5.00004 1.42683C5.29179 0.426996 6.70821 0.426998 6.99996 1.42683L7.69394 3.80505C7.78099 4.10339 7.99672 4.34728 8.2822 4.47011L10.7761 5.54314C11.6161 5.90455 11.6161 7.09545 10.7761 7.45686L8.2822 8.52989C7.99672 8.65272 7.78099 8.89661 7.69394 9.19495L6.99996 11.5732C6.70821 12.573 5.29179 12.573 5.00004 11.5732L4.30606 9.19495C4.21901 8.89661 4.00328 8.65272 3.7178 8.52989L1.22389 7.45686C0.383933 7.09545 0.383933 5.90455 1.22389 5.54314L3.7178 4.47011C4.00328 4.34728 4.21901 4.10339 4.30606 3.80505L5.00004 1.42683Z" fill="white" fill-opacity="0.6"/>
</svg>
